<?xml version="1.0" encoding="UTF-8"?> <svg xmlns="http://www.w3.org/2000/svg" id="Layer_1" data-name="Layer 1" viewBox="0 0 3794.44 1640.22"><defs><style> .cls-1 { fill: #0070ba; stroke-width: 0px; } </style></defs><path class="cls-1" d="M2586.42,286.91h-199.84v672.54h199.84V286.91ZM2152.93,974.82c58.61,0,121.06-12.49,177.74-38.43l-27.86-195.03c-400.71,200.33-412.13-426.01-9.61-243.08l27.86-195.03c-552.98-212.4-770.99,631.1-168.13,671.58M1432.55,696.2l100.88-182.54v182.54h-100.88ZM1771.7,696.2h-53.8v-409.29h-240.19l-253.64,443.88v129.71h309.37v98.96h184.47v-98.96h53.8v-164.3ZM1188.61,286.91h-199.84v672.54h199.84V286.91ZM567.19,678.9l55.73-201.76,54.76,201.76h-110.49ZM753.58,959.45h213.29l-225.78-672.54h-237.31l-225.78,672.54h213.29l30.75-111.45h200.8l30.75,111.45Z"></path><path class="cls-1" d="M3450.03,1221.31c7.39,0,13.73,3.43,17.95,8.98l-42.24,13.73c2.11-13.46,11.09-22.7,24.28-22.7M3452.93,1278.33c-7.66,0-13.73-2.11-18.21-5.81l80.25-25.87c-4.58-89.22-135.23-78.35-133.58,3.43-1.32,65.15,84.47,82.86,128.56,47.78l-13.46-36.43c-17.95,12.67-32.47,16.9-43.56,16.9M3343.99,1316.08c12.41,0,22.97-2.64,33.52-6.87l-6.07-43.56c-61.46,29.51-63.77-60.39-1.85-32.2l6.6-44.09c-107.03-40.52-150,119.57-32.21,126.71M3218.39,1184.09c-14.78,0-27.19,5.01-35.9,14.25v-12.93l-52.53,5.01v121.43h53.59v-69.95c0-7.66,5.02-13.2,12.67-13.2s12.67,5.54,12.67,13.2v69.95h53.59c-4.23-38.15,19.06-130.24-44.09-127.77M3053.49,1221.31c7.39,0,13.73,3.43,17.95,8.98l-42.24,13.73c2.11-13.46,11.09-22.7,24.29-22.7M3056.39,1278.33c-7.66,0-13.73-2.11-18.21-5.81l80.25-25.87c-4.58-89.22-135.23-78.35-133.57,3.43-1.32,65.15,84.47,82.86,128.56,47.78l-13.46-36.43c-17.95,12.67-32.47,16.9-43.56,16.9M2889.82,1248.5c-.25-26.71,40.38-26.71,40.13,0,.25,26.71-40.38,26.71-40.13,0M2965.58,1213.92l11.61-27.45h-64.67c-106.21,1.81-81.27,146.44,17.16,121.43,2.81,33.12-47.45,23.22-62.3,2.9l-25.34,32.47c52.49,59.33,166.88,16.98,123.54-59.39,14.72-18.61,15.18-51.7,0-69.95M2777.82,1311.85h53.59v-126.71l-53.59,5.28v121.43ZM2804.75,1178.02c40.42-.21,40.41-58.39,0-58.6-40.42.21-40.42,58.39,0,58.6M2705.41,1311.85h53.59v-190.07l-53.59,5.28v184.78ZM2633.06,1311.85h53.59v-190.07l-53.59,5.28v184.78ZM2556.35,1221.31c7.39,0,13.73,3.43,17.95,8.98l-42.24,13.73c2.11-13.46,11.09-22.7,24.28-22.7M2559.26,1278.33c-7.66,0-13.73-2.11-18.22-5.81l80.25-25.87c-4.58-89.22-135.23-78.35-133.57,3.43-1.32,65.15,84.47,82.86,128.56,47.78l-13.46-36.43c-17.95,12.67-32.47,16.9-43.55,16.9M2480.62,1229.23v-41.45h-28.25v-44.35l-53.59,25.08v19.27h-14.25v41.45h14.25v31.94c-3,45.88,42.44,62.11,81.83,47.78v-43.03c-34.18,10.4-27.86-13.44-28.25-36.69h28.25ZM2331.84,1184.09c-14.78,0-27.19,5.01-35.9,14.25v-12.93l-52.54,5.01v121.43h53.59v-69.95c0-7.66,5.02-13.2,12.67-13.2s12.67,5.54,12.67,13.2v69.95h53.59c-4.23-38.15,19.06-130.24-44.09-127.77M2221.82,1127.07h-54.91v184.78h54.91v-184.78ZM2041,1221.31c7.39,0,13.73,3.43,17.95,8.98l-42.24,13.73c2.11-13.46,11.09-22.7,24.28-22.7M2043.9,1278.33c-7.66,0-13.73-2.11-18.22-5.81l80.25-25.87c-4.58-89.22-135.23-78.35-133.57,3.43-1.32,65.15,84.47,82.86,128.56,47.78l-13.46-36.43c-17.95,12.67-32.47,16.9-43.55,16.9M1921.79,1187.78l-15.84,69.16-15.84-69.16h-55.44l41.45,124.07h59.66l41.45-124.07h-55.43ZM1775.18,1311.85h53.59v-126.71l-53.59,5.28v121.43ZM1802.1,1178.02c40.42-.21,40.41-58.39,0-58.6-40.42.21-40.42,58.39,0,58.6M1759.95,1229.23v-41.45h-28.25v-44.35l-53.59,25.08v19.27h-14.25v41.45h14.25s0,31.94,0,31.94c-3,45.87,42.44,62.11,81.83,47.78v-43.03c-34.18,10.4-27.86-13.44-28.25-36.69h28.25ZM1627.09,1316.08c12.41,0,22.97-2.64,33.52-6.87l-6.07-43.56c-61.46,29.51-63.77-60.39-1.85-32.2l6.6-44.09c-107.03-40.52-150,119.57-32.21,126.71M1486.24,1221.31c7.39,0,13.73,3.43,17.95,8.98l-42.24,13.73c2.11-13.46,11.09-22.7,24.29-22.7M1489.14,1278.33c-7.66,0-13.73-2.11-18.21-5.81l80.25-25.87c-4.58-89.22-135.23-78.35-133.57,3.43-1.32,65.15,84.47,82.86,128.56,47.78l-13.46-36.43c-17.95,12.67-32.47,16.9-43.56,16.9M1352.06,1311.85h53.59v-190.07l-53.59,5.28v184.78ZM1279.71,1311.85h53.59v-190.07l-53.59,5.28v184.78ZM1197,1271.46c-28.07.16-28.06-43.46,0-43.29,28.06-.16,28.06,43.45,0,43.29M1197,1316.08c92.78.77,92.29-133.23,0-132.52-92.3-.7-92.77,133.3,0,132.52M1074.04,1316.08c16.1,0,33.26-3.43,48.83-10.56l-7.66-53.59c-110.1,55.05-113.23-117.05-2.64-66.79l7.66-53.59c-151.94-58.36-211.84,173.4-46.2,184.52M889.52,1205.47v-19.8l-50.42,4.75v121.43h53.59c2.61-28.79-13.17-83.77,33-81.04v-45.93c-18.48,0-29.83,6.86-36.16,20.59M756.64,1271.46c-28.07.16-28.06-43.46,0-43.29,28.06-.16,28.06,43.45,0,43.29M756.64,1316.08c92.78.77,92.29-133.23,0-132.52-92.3-.7-92.77,133.3,0,132.52M679.8,1168.51h3.43v-45.4c-48.1-2.19-78.7,20.79-76.82,64.67h-15.31v41.45h15.31v82.62h53.59v-82.62h23.23v-41.45h-23.23c-.23-12.3,6.64-19.32,19.8-19.27M530.12,1127.07h-54.91v184.78h54.91v-184.78ZM357.46,1234.77l15.31-55.43,15.05,55.43h-30.36ZM408.67,1311.85h58.6l-62.03-184.78h-65.21l-62.03,184.78h58.6l8.45-30.62h55.17l8.45,30.62Z"></path><g><path class="cls-1" d="M3267.71,827.5c2.93,6.21,5.25,12.85,6.93,19.9l65.47-27.79c-3.6-6.04-6.49-12.47-8.63-19.18l-63.78,27.07Z"></path><path class="cls-1" d="M2991.85,797.48l-67.88,28.81c3.02,6.16,5.41,12.78,7.18,19.8l68.73-29.18c-3.39-6.14-6.12-12.64-8.04-19.43"></path><path class="cls-1" d="M3099.02,473.11c-6.96.68-13.93.53-20.91-.34v197.4c6.95-.71,13.96-.76,20.91-.16v-196.9Z"></path><path class="cls-1" d="M3213.14,758.86c4.82,6.32,8.84,13.3,11.98,20.91h102.22c-.73-7.2-.83-14.18-.34-20.91h-113.86Z"></path><path class="cls-1" d="M3032.95,809.37c1.33-15.56,6.22-30.36,14.55-43.26-.77-.95-33.44-41.3-35.54-43.88-21.75,34.52-13.9,91.24,21.98,115.89-1.46-9.95-1.83-19.16-.99-28.75"></path><path class="cls-1" d="M3072.13,683.03c-9.38,1.6-18.53,4.65-26.99,8.97,9.26,11.43,26.26,32.43,35.31,43.6,25.95-14.66,58.23-17.91,86.56-8.81-16.25-34.4-58.33-50.9-94.88-43.76"></path><path class="cls-1" d="M3073.76,798.54c-5.86-7.24-12.36-15.26-18.23-22.51-12.78,22.43-14.22,50.54-6.08,75.17h29.55c2.17-11.35,6.22-21.85,12.06-31.29l-17.3-21.37Z"></path><path class="cls-1" d="M3121.06,785.75l2.36,2.91c26.22-15.48,59.18-18.97,88.16-9.73-21.45-44.61-81.98-57-123.49-33.9,10.73,13.25,22.24,27.46,32.97,40.72"></path><path class="cls-1" d="M3364.79,689.71c1.59-1.16,3.23-2.25,4.89-3.31l-202.82-250.45c-4.37,5.43-9.36,10.41-14.85,14.89l201.39,248.69c3.48-3.49,7.26-6.78,11.39-9.81"></path><path class="cls-1" d="M3054.93,756.3c14.02,17.32,29.3,36.18,43.38,53.57,4.39-5.28,9.45-10.13,15.16-14.51-53.95-66.63-150.94-186.4-205.97-254.36-4.74,5.04-10.05,9.62-15.85,13.66,31.7,39.15,133.42,164.76,163.28,201.64"></path><path class="cls-1" d="M2823.9,774.47c6.95-.72,13.96-.78,20.91-.19v-201.97c-6.96.68-13.93.53-20.91-.34v202.51Z"></path><path class="cls-1" d="M3077.43,863.15h-143.3c.8,6.84.85,14.05,0,20.91h143.65c-.72-7.17-.93-13.94-.34-20.91"></path><path class="cls-1" d="M3469.16,690.71c-111.45-50.27-187.94,105.23-76.95,158.73,104.94,44.64,173.48-108.14,76.95-158.73"></path><path class="cls-1" d="M3264.62,858.15c-18.21-114.74-197.48-83.15-174.01,31.89,24.52,111.94,191.35,82.36,174.01-31.89"></path><path class="cls-1" d="M2998.36,418.15c-3.15-6.27-5.58-12.89-7.23-19.78l-66.67,28.31c2.94,6.2,5.27,12.84,6.97,19.89l66.94-28.41Z"></path><path class="cls-1" d="M2922.09,862.92c-11.88-116.76-195.78-93.46-174.94,25.54,21.39,110.22,186.31,87.53,174.94-25.54"></path><path class="cls-1" d="M2747.15,487.82c23.58,116.41,198.35,82.29,173.11-36.52-22.9-106.77-194.86-75.01-173.11,36.52"></path><path class="cls-1" d="M3001.24,387.59c17.51,104.85,175.4,93.14,175.82-14.57-1.59-125.76-195.44-108.72-175.82,14.57"></path></g></svg> 