<?xml version="1.0" encoding="UTF-8"?>
<svg id="Layer_1" xmlns="http://www.w3.org/2000/svg" version="1.1" xmlns:xlink="http://www.w3.org/1999/xlink" viewBox="0 0 595.28 841.89">
  <!-- Generator: Adobe Illustrator 30.2.1, SVG Export Plug-In . SVG Version: 2.1.1 Build 1)  -->
  <defs>
    <style>
      .st0, .st1 {
        fill: none;
      }

      .st0, .st1, .st2 {
        stroke: #fff;
      }

      .st0, .st2 {
        stroke-width: 1.73px;
      }

      .st3, .st2 {
        fill: #fff;
      }

      .st1 {
        stroke-width: 1.3px;
      }

      .st4 {
        clip-path: url(#clippath);
      }
    </style>
    <clipPath id="clippath">
      <rect class="st3" x="157.75" y="109.07" width="161.38" height="161.37" rx="14.7" ry="14.7"/>
    </clipPath>
  </defs>
  <g>
    <path class="st2" d="M159.7,297.01c0-7.79,3.59-11.81,11.46-11.81h16.77v2.65h-16.34c-6.25,0-9.33,2.39-9.33,8.82v19.51c0,6.94,3.85,9.59,10.35,9.59h15.49v2.57h-15.66c-8.04,0-12.75-3.26-12.75-11.81v-19.51Z"/>
    <path class="st2" d="M195.73,310.88c0-6.85,4.28-11.3,11.21-11.3h21.73v-2.82c0-5.81-3.5-8.9-9.24-8.9h-23.62v-2.65h22.34c8.21,0,13.01,3.5,13.01,12.06v19.43c0,7.19-3.42,11.64-10.95,11.64h-13.01c-6.76,0-11.47-4.11-11.47-11.04v-6.42ZM207.02,325.77h13.26c5.39,0,8.3-3.09,8.3-8.48v-15.23h-21.74c-5.31,0-8.56,3.59-8.56,8.73v6.33c0,5.3,3.42,8.65,8.73,8.65Z"/>
    <path class="st2" d="M250.92,285.21h20.79v2.65h-20.71c-4.53,0-9.24,1.29-9.24,6.76v2.74c0,6.33,4.11,7.7,9.67,7.7h10.35c8.81,0,9.67,5.4,9.67,12.41s-3.17,10.87-10.44,10.87h-21.56v-2.57h21.56c5.39,0,7.79-2.65,7.79-8.04,0-5.65-.43-9.93-7.27-9.93h-10.18c-7.19,0-12.06-2.49-12.06-10.35v-2.74c0-6.93,5.47-9.5,11.64-9.5Z"/>
    <path class="st2" d="M279.84,310.88c0-6.85,4.28-11.3,11.21-11.3h21.74v-2.82c0-5.81-3.51-8.9-9.25-8.9h-23.62v-2.65h22.34c8.22,0,13.01,3.5,13.01,12.06v19.43c0,7.19-3.42,11.64-10.96,11.64h-13.01c-6.76,0-11.47-4.11-11.47-11.04v-6.42ZM291.14,325.77h13.27c5.39,0,8.3-3.09,8.3-8.48v-15.23h-21.73c-5.31,0-8.56,3.59-8.56,8.73v6.33c0,5.3,3.42,8.65,8.73,8.65Z"/>
  </g>
  <g>
    <rect class="st3" x="157.75" y="109.07" width="161.38" height="161.37" rx="14.7" ry="14.7"/>
    <g class="st4">
      <g>
        <path class="st2" d="M203.45,143.26c0,6.97-5.65,12.62-12.62,12.62s-12.62-5.65-12.62-12.62,5.65-12.62,12.62-12.62,12.62,5.65,12.62,12.62Z"/>
        <path class="st2" d="M266.46,169.88c0,8.37-6.78,15.16-15.16,15.16s-15.16-6.79-15.16-15.16,6.78-15.16,15.16-15.16,15.16,6.79,15.16,15.16Z"/>
        <path class="st2" d="M204.61,167.75c0,8.2-6.65,14.85-14.86,14.85s-14.86-6.65-14.86-14.85,6.65-14.86,14.86-14.86,14.86,6.65,14.86,14.86Z"/>
        <polyline class="st0" points="298.29 130.16 262.82 132.89 262.31 191.01 241.6 271.6"/>
        <polyline class="st0" points="262.82 132.89 251.3 169.87 190.82 143.26 237.35 120.15"/>
        <line class="st0" x1="290.11" y1="163.81" x2="302.84" y2="195.95"/>
        <polyline class="st0" points="189.75 167.75 152.77 244.15 241.6 271.6 202.19 218.38"/>
        <polyline class="st0" points="251.3 169.87 290.11 163.81 262.31 191.01 287.38 242.94 241.6 271.6 189.75 167.75 202.19 218.38 270.09 225.05"/>
        <path class="st1" d="M241.6,271.6"/>
        <path class="st2" d="M310.89,195.95c0,4.45-3.6,8.05-8.05,8.05s-8.05-3.6-8.05-8.05,3.6-8.05,8.05-8.05,8.05,3.6,8.05,8.05Z"/>
        <path class="st2" d="M244.38,120.15c0,3.88-3.15,7.03-7.03,7.03s-7.03-3.15-7.03-7.03,3.14-7.03,7.03-7.03,7.03,3.15,7.03,7.03Z"/>
        <path class="st2" d="M275.52,225.05c0,3-2.42,5.42-5.42,5.42s-5.42-2.43-5.42-5.42,2.43-5.42,5.42-5.42,5.42,2.43,5.42,5.42Z"/>
        <path class="st2" d="M279.98,191.01c0-9.76-7.91-17.68-17.67-17.68s-17.68,7.91-17.68,17.68,7.92,17.68,17.68,17.68,17.67-7.91,17.67-17.68Z"/>
        <path class="st2" d="M254.33,271.6c0,7.03-5.7,12.73-12.73,12.73s-12.73-5.7-12.73-12.73,5.7-12.73,12.73-12.73,12.73,5.7,12.73,12.73Z"/>
        <path class="st2" d="M298.6,242.94c0,6.19-5.03,11.22-11.22,11.22s-11.22-5.03-11.22-11.22,5.02-11.22,11.22-11.22,11.22,5.02,11.22,11.22Z"/>
        <path class="st2" d="M274.95,132.89c0,6.7-5.43,12.13-12.13,12.13s-12.13-5.43-12.13-12.13,5.43-12.12,12.13-12.12,12.13,5.43,12.13,12.12Z"/>
        <path class="st2" d="M167.02,244.15c0,7.87-6.38,14.25-14.25,14.25s-14.25-6.38-14.25-14.25,6.38-14.25,14.25-14.25,14.25,6.38,14.25,14.25Z"/>
        <path class="st2" d="M308.9,130.16c0,5.86-4.75,10.61-10.61,10.61s-10.61-4.75-10.61-10.61,4.75-10.61,10.61-10.61,10.61,4.75,10.61,10.61Z"/>
        <path class="st2" d="M305.27,163.81c0,8.37-6.79,15.16-15.16,15.16s-15.16-6.79-15.16-15.16,6.79-15.16,15.16-15.16,15.16,6.78,15.16,15.16Z"/>
        <path class="st2" d="M214.92,218.38c0,7.03-5.7,12.73-12.73,12.73s-12.73-5.7-12.73-12.73,5.7-12.74,12.73-12.74,12.73,5.7,12.73,12.74Z"/>
      </g>
    </g>
  </g>
</svg>